<?xml version="1.0" encoding="UTF-8"?>
<svg xmlns="http://www.w3.org/2000/svg" version="1.1" viewBox="0 0 407.7 53.6">
  <g>
    <g id="Layer_1">
      <g>
        <path d="M10.3,47.2c-7.4,0-10.3-5-10.3-10.4s3.7-12.1,9.6-12.1,5.8,3.6,5.8,7.2-1.9,7.5-5.3,7.5-1.7-.4-2.1-1c1.9-1.9,3.3-5.5,3.3-8.5s-.5-3-1.6-3.6c-2.9.7-5.2,5.9-5.2,10.8s1.7,7.7,6,8.3c4.2-.9,7.2-6.6,7.2-10.8,0-9.2-5.2-13.1-5.2-21.4s3.8-8.9,7.2-8.9,7,2.9,7.6,6.1c0-.9,0-1.9,0-3,0-3.7.5-7.5,3.1-7.5s2.5.8,3,2.4c-3.6,1.9-4.6,5.9-5.6,9.6-.3,1.3-.7,2.6-1.2,3.8-.9,2.1-2.5,3.5-3.9,3.5s-1.3-.3-1.9-.8c1.7-1.9,2.7-4.6,2.7-7.1,0-2.5-.8-4.6-2.6-5.6-2.2,0-4.1,2.7-4.1,6.5,0,7.7,5.2,12.4,5.2,21.6s-4.2,13.4-11.8,13.4Z"/>
        <path d="M18.9,51.6c0-3,5.7-17.9,7.2-21.9,1.6-4.4,5.2-13.7,5.9-15.9,2.1,0,2.8.3,2.8,1.4s-2.6,7.4-3.6,10.3c2.4-5.1,4.5-7.5,6.1-7.5s3.4,1.6,3.4,3.5c0,4.7-2.7,13-6.1,16.7,2.3-1.1,8.3-9.2,11.7-17.6.5,0,.9,0,.9.6,0,2-5.2,18.8-15.9,18.8s-2.9-1.1-3.8-3c-1.7,4.4-3.6,9.7-5.8,16.1-1.9,0-2.8-.4-2.8-1.5ZM35,28.8c1.4-3.7,2.4-7.5,2.2-8.7-2.2.3-4.9,4.8-9.1,15.6.9,1.3,1.5,1.8,2.2,1.8,1.1,0,2.1-1.6,4.7-8.7Z"/>
        <path d="M42.6,36.6c0-2.1,6-11.8,6-13.1s-.4-.8-.9-1.2c-1.5-1-1.9-1.9-1.9-3.7,0-4.5,1.7-6.3,3.3-6.3s1.6.4,2.1,1.2c-.9,1.3-2,3-3.4,5.7-.2.4-.3.7-.3,1.1s.1.5.4.6c3.1,1,4.1,1,4.1,3s-1.6,4.9-3.2,8.1c-1.2,2.6-2.3,5.1-2.4,6.3,3.6-1.7,8-9.6,10.7-16.1.3,0,.3,0,.3.3,0,2.1-6.7,17.5-11.8,17.5s-3-1.6-3-3.4Z"/>
        <path d="M55.2,40.2c-1.4,0-3.3-.8-3.3-2.8,0-4.4,5.6-14.8,6-17.7-.8.2-1.4.3-1.8.3-.8,0-1.1-.3-1.1-.7s0-.4.1-.6c1.3,0,2.5-.2,3.6-.2s2.6.7,2.6,2.8-5.9,13.1-5.9,16.5,0,.3,0,.4c1.6,0,4.5-4.3,7-9.3,1.5-3,2.7-6.3,4.1-10.2.5-.1,1.1-.2,1.6-.2,1,0,1.6.3,1.6,1.1,0,1.1-1.2,5-2.7,8.9-1.6,4-3.5,8.1-4,9.7,4.2-1.7,8.1-9.6,10.7-15.9.3,0,.3,0,.3.3,0,2.1-6.5,17.5-11.5,17.5s-2.7-1-2.7-2.5.5-2.1,1.2-3.8c-2.3,4.2-4.4,6.4-6,6.4Z"/>
        <path d="M74.9,40c-3.3,0-5.9-2-5.9-4.9,0-4.9,2.7-13.3,6.6-16.4.7-.5,2-.8,3-.8,2.5,0,4.8,1.5,4.8,4.7s-1.9,8.6-5.1,8.6-1.4-.4-1.7-1.1c1.4-1.6,3.7-7,3.7-9.5s0-.9-.3-1.1c-2.2.1-6.8,10.4-6.8,15.6s.3,2.2,1,2.7c5.5-1,10.4-9.2,13.1-15.6.3,0,.3,0,.3.3,0,2.1-7,17.5-12.7,17.5Z"/>
        <path d="M88.5,40c-3.3,0-6-1.9-6-4.9,0-4.3,2.4-11.3,5.7-15,1.1-1.3,2.5-2.2,4.4-2.2s4.5,1.1,4.5,4.1-4.3,12.1-9.5,12.1-.8,0-1.2-.2c0,.5,0,.9,0,1.3,0,1.2.4,2.1,1.5,2.6,2.8-.3,5.2-2.7,6.6-5.1.3,0,.6,0,.6.5,0,1.9-3.7,6.7-6.6,6.7ZM86.7,32.9c3.8-.6,7.5-9.3,7.5-12.3s0-.8-.3-1c-2,.1-6,8.1-7.2,13.3Z"/>
        <path d="M110.1,44.8c-1.6,1.7-3.4,2.5-5.6,2.5-3.8,0-5.7-2.7-5.7-5.3s1.6-4.4,5-4.4,3.3,1.3,4.8,2.8c3-6.1,6.1-16.1,9.5-24.2,1.5-3.7,2.6-4.9,4.1-4.9s1.4.3,1.9.8c-3.1,7.9-6.3,16.7-8.5,22.3-1.4,3.7-2.7,6.6-4.2,8.7.9.8,1.9,1.4,2.9,1.7,2.3-1,7.1-9.4,9.9-18.6,1.6-5.2,2.5-9.8,2.5-13.2s-.9-5.8-2.8-6.7c-.3,0-.4,0-.6,0-7.9,0-13.6,11.8-13.6,20.1,0,2.1.3,4,1.1,5.4-.3.5-.9.8-1.7.8-1.6,0-3.8-1.5-3.8-6.6,0-8.3,6.7-21.6,15.6-21.6s9.9,2.5,9.9,9.9-.8,6.7-1.9,10.9c-2.7,10.1-9.1,22-14.8,22s-2.7-1.1-4.1-2.5ZM107.6,42.1c-1.4-1.6-2.7-3.1-3.7-3.4-.9.4-1.7,2-1.7,3.7s.6,2.8,2.3,3.4c1.1-.5,2.1-1.9,3.1-3.7Z"/>
        <path d="M135.1,40h0c-3.3,0-6-1.9-6-4.9,0-4.3,2.4-11.3,5.7-15,1.1-1.3,2.5-2.2,4.4-2.2s4.5,1.1,4.5,4.1-4.3,12.1-9.5,12.1-.8,0-1.2-.2c0,.5,0,.9,0,1.3,0,1.4.5,2.2,1.6,2.7,5.2-.7,10.1-9.3,12.8-15.8.3,0,.3,0,.3.3,0,2.1-6.9,17.5-12.7,17.5ZM133.3,32.9c3.8-.6,7.5-9.3,7.5-12.3s0-.8-.3-1c-2,.1-6,8.1-7.2,13.3Z"/>
        <path d="M141.4,37.3c0-2.5,1.8-6.6,3.4-10.3,1.6-3.4,3-6.5,2.8-7.4-.6.2-1.3.3-2.1.3s-1.3-.3-1.3-.7,0-.4.1-.6c1,0,1.7-.3,3.5-.3s3,1.1,3,2.9-1.4,4.2-2.7,7.3c-1.4,3.1-2.7,6.3-2.7,8.3s0,1,.3,1.3c2.1-2,5.3-7,7.2-12.6,0-4,1-8.1,2.9-8.1s1.9,1.7,1.9,3c0,1.8-.8,4.6-1.9,7.4,2.6-.5,4.4-4.2,5-5.7.3,0,.3,0,.3.3,0,.5-2.2,6.9-6.2,7.3-2.5,5.2-6.3,10.2-9.6,10.2s-3.8-.5-3.8-2.7Z"/>
        <path d="M162,40h0c-3.3,0-6-1.9-6-4.9,0-4.3,2.4-11.3,5.7-15,1.1-1.3,2.5-2.2,4.4-2.2s4.5,1.1,4.5,4.1-4.3,12.1-9.5,12.1-.8,0-1.2-.2c0,.5,0,.9,0,1.3,0,1.4.5,2.2,1.6,2.7,5.2-.7,10.1-9.3,12.8-15.8.3,0,.3,0,.3.3,0,2.1-6.9,17.5-12.7,17.5ZM160.2,32.9c3.8-.6,7.5-9.3,7.5-12.3s0-.8-.3-1c-2,.1-6,8.1-7.2,13.3Z"/>
        <path d="M169.3,36.6c0-7.8,9.7-32.2,15.8-32.2s2,1.1,2,2.1c0,5.6-6.8,20.8-12.4,22.3-1,3.1-1.6,5.7-1.6,7.4s.2,1.4.5,1.9c3.3-1.6,8-9.6,10.6-15.9.3,0,.3,0,.3.3,0,2.1-6.8,17.5-11.8,17.5s-3.4-1.5-3.4-3.4ZM175.3,27.2c3.6-2.2,11-20.4,10.5-21.4-1.8.7-6.2,9.2-9.1,17.4-.5,1.4-1,2.7-1.4,4Z"/>
        <path d="M179.6,34.7c0-2.6,1-6.1,2.5-9.3,1.4-3.1,3-6.1,5.6-6.1s1.3.3,1.5.7c-2.8,4.4-5.9,12.8-5.9,16.4s.3,1.5.8,1.8c2.4-2.2,7.3-12.7,7.1-18.8-2.2-.4-3.8-1.1-3.8-1.9,0-1.2,1.1-2.3,2.1-2.3,1.8,0,4.1,1.5,5.1,3.4.3,0,.6,0,.9,0,2.6,0,4.8-1.1,6-4.4.4,0,.7.2.7.7,0,1.8-1.9,4.9-6.3,4.9h-1c0,3.9-2.9,12.6-6,17-1.6,2.2-3.5,3.1-4.9,3.1-2.7,0-4.6-1.8-4.6-5.3Z"/>
        <path d="M188.2,51.6c0-3,5.7-17.9,7.2-21.9,1.6-4.4,5.2-13.7,5.9-15.9,2.1,0,2.8.3,2.8,1.4s-2.6,7.4-3.6,10.3c2.4-5.1,4.5-7.5,6.1-7.5s3.4,1.6,3.4,3.5c0,4.5-2.5,12.3-5.7,16.1,3.7-2.6,8-9.5,10.5-15.4.3,0,.3,0,.3.3,0,2.1-6.6,17.5-14.3,17.5s-3-1-4-3c-1.7,4.4-3.6,9.7-5.8,16.1-1.9,0-2.8-.4-2.8-1.5ZM204.2,28.8c1.4-3.7,2.4-7.5,2.2-8.7-2.2.3-4.9,4.8-9.1,15.6.9,1.3,1.5,1.8,2.2,1.8,1.1,0,2.1-1.6,4.7-8.7Z"/>
        <path d="M225.3,36.6c0-1.5,1.4-5,3.2-8.6,1.8-3.7,3.7-7.1,3.6-8.3-1.5-.3-9.3,13.2-11.6,19.9-.3,0-.6,0-1,0-1.1,0-2.4-.3-2.4-1.4,0-1.5,1.6-6.2,3.1-9.9,1.7-4.1,3.6-7.9,3.5-9.2-1.5-.3-9.6,14.5-11.7,20.4-.4,0-.8,0-1.1,0-1.1,0-1.9-.3-1.9-1.5s1.2-4.7,2.6-8.4c1.4-3.8,3.3-7.6,4-10.2-.8.3-1.4.3-1.9.3-.9,0-1.2-.4-1.2-.8s0-.3.1-.5c1.3,0,2.5-.2,3.6-.2s2.4.7,2.4,2.2-1.3,4.4-3.1,8.5c3.5-6.2,6-11.5,8.4-11.5s3.2.7,3.2,2.5-1.8,5.7-3.2,9.3c3-6,5.8-11.3,8.4-11.3s3.5.7,3.5,2.7-1.4,4.7-3.3,8.6c-1.7,3.5-3.8,7.4-3.6,9,3.6-1.7,8-9.7,10.7-16.1.3,0,.3,0,.3.3,0,2.1-6.6,17.5-11.8,17.5s-3-1.5-3-3.4Z"/>
        <path d="M240.9,40h0c-3.3,0-6-1.9-6-4.9,0-4.3,2.4-11.3,5.7-15,1.1-1.3,2.5-2.2,4.4-2.2s4.5,1.1,4.5,4.1-4.3,12.1-9.5,12.1-.8,0-1.2-.2c0,.5,0,.9,0,1.3,0,1.4.5,2.2,1.6,2.7,5.2-.7,10.1-9.3,12.8-15.8.3,0,.3,0,.3.3,0,2.1-6.9,17.5-12.7,17.5ZM239.2,32.9c3.8-.6,7.5-9.3,7.5-12.3s0-.8-.3-1c-2,.1-6,8.1-7.2,13.3Z"/>
        <path d="M255.7,36.6c0-1.5,1.4-5,3.2-8.6,1.8-3.7,3.8-7.1,3.7-8.3-1.6-.3-9,11.3-12.3,19.7-.3,0-.7.2-1.1.2-1,0-2-.4-2-1.3,0-1.4,1.2-4.7,2.7-8.6,1.4-3.6,3.1-7.3,3.9-9.8-.8.2-1.4.2-1.8.2-.8,0-1.1-.3-1.1-.8,0-.3,0-.5.1-.8,1.3,0,2.5-.2,3.6-.2s2.4.7,2.4,2.2-1.4,4.8-2.8,8.5c3.2-5.7,6.2-11,8.8-11s3.6.7,3.6,2.7-1.4,4.7-3.4,8.5c-1.9,3.8-4,7.6-3.4,8.9,3.5-1.9,7.8-9.7,10.4-16,.3,0,.3,0,.3.3,0,2.1-6.6,17.5-11.8,17.5s-3-1.5-3-3.4Z"/>
        <path d="M265.2,36.7c0-2.4,3-10.5,5.6-16.7-.8,0-1.6-.1-2.2-.2,0-.2,0-.2,0-.3,0-.4.2-.8.8-.8.7,0,1.4,0,2.1,0,1-2.4,1.9-4.4,2.3-5.3,2.4,0,3.2.7,3.2,1.6s-.7,2.2-1.4,3.7c1,0,2,0,2.9,0,.1.2.2.4.2.5,0,.7-1.2.9-3.7,1-1.4,3.6-3.1,7.9-5.1,13.4-.4,1.2-.6,2.2-.6,2.8,0,.8.2,1.2.5,1.6,1.7-.9,3.2-3,4.4-5,.3,0,.6,0,.6.5,0,1.8-3.3,6.6-5.8,6.6s-3.6-1.4-3.6-3.3Z"/>
        <path d="M280.8,43.3c0-1.1.5-2.1,1.6-2.5,1.4,1.8,3.3,3.7,5.1,4.1,1.9-2.3,3.8-7.8,4.7-10.1,2.3-5.7,4.8-12.8,7.6-19.1,1.4-3.2,3.1-4.4,4.6-4.4s1.1.3,1.4.6c-.3.8-1.1,2.7-1.4,3.6-2.8,6.9-5.5,14-8.4,20.9h.4c6.2,0,12.3-15.1,12.3-22.2s-2.3-8-6.3-8.6c-10.9.7-17.5,11.8-17.5,21.3s.5,4.2,1.6,4.4c2.9-2.3,5.5-11,5.5-15.6s0-.7,0-1c.3-.1.5-.2.8-.2,1.2,0,2.5,1.4,2.5,4.5,0,4.9-3.6,13.7-8.6,13.7s-5.2-3-5.2-7.1c0-9.1,7.4-21.4,19.4-21.4s12.3,3.9,12.3,10.5c.1,9.6-8,23.4-14,23.4s-2.4-.3-3.3-.6c-.2.5-.5,1.1-.7,1.6-1.8,4.1-3.7,8.1-8.9,8.1s-5-2.1-5-3.9Z"/>
        <path d="M309.9,36.6c0-7.8,9.7-32.2,15.8-32.2s2,1.1,2,2.1c0,5.6-6.8,20.8-12.4,22.3-1,3.1-1.6,5.7-1.6,7.4s.2,1.4.5,1.9c3.3-1.6,8-9.6,10.6-15.9.3,0,.3,0,.3.3,0,2.1-6.8,17.5-11.8,17.5s-3.4-1.5-3.4-3.4ZM315.8,27.2c3.6-2.2,11-20.4,10.5-21.4-1.8.7-6.2,9.2-9.1,17.4-.5,1.4-1,2.7-1.4,4Z"/>
        <path d="M327.7,37.5c0-1.1,1-3.3,1.8-5.7-2.3,4.6-4.2,8.3-6.3,8.3s-3.4-1.4-3.4-3.4.9-5.9,2.2-9.1c1.9-4.9,4.3-9.5,7.2-9.5s3.3,1.3,3.5,3.7c.5-1.1.9-2.3,1.3-3.3,1.7,0,3.1,0,3.1,1.6s-1.2,4.6-2.6,8.3c-1.5,4-3.4,7.9-3.8,9.8,2.7-1.1,7.6-9.6,10.2-16,.3,0,.3,0,.3.3,0,2.1-6.8,17.5-10.9,17.5s-2.5-1.4-2.5-2.5ZM329.5,29.1c1-2.2,2.3-4.6,2.3-6.2,0-1.4-.6-2.3-1.4-2.3s-1.9,1.7-4.8,8.8c-1.5,3.7-2.4,7.5-2.2,8.6,1.5-.7,3.8-4.6,6-9Z"/>
        <path d="M335.9,36.7c0-2.4,3-10.5,5.6-16.7-.8,0-1.6-.1-2.2-.2,0-.2,0-.2,0-.3,0-.4.2-.8.8-.8.7,0,1.4,0,2.1,0,1-2.4,1.9-4.4,2.3-5.3,2.4,0,3.2.7,3.2,1.6s-.7,2.2-1.4,3.7c1,0,2,0,2.9,0,.1.2.2.4.2.5,0,.7-1.2.9-3.7,1-1.4,3.6-3.1,7.9-5.1,13.4-.4,1.2-.6,2.2-.6,2.8,0,.8.2,1.2.5,1.6,3.3-1.9,7-9.6,9.6-15.7.3,0,.3,0,.3.3,0,2.1-6.4,17.5-10.8,17.5s-3.6-1.5-3.6-3.3Z"/>
        <path d="M344.4,53.6c-1.8,0-4-1.4-4-3.6s4.1-13.9,7.2-22c-.6-.1-1.1-.3-1.6-.4,0-.4,0-.9.8-.9h1.3c3.7-9.7,7.7-18.6,9.4-22.1,1.7,0,3.2.5,3.2,1.4s-1.5,3.9-2.8,6.9c-1.8,4.2-3.9,9.3-5.6,13.7,2.8,0,5.8,0,8.8,0,0,.1.1.3.1.4,0,1-2.8,1.5-7.7,1.5s-.8,0-1.2,0c1,.5,1.4,1.7,1.4,4.1,0,5.8-5.5,21-9.2,21ZM351.6,30.9c0-.8,0-1.4-.3-1.8-3.8,10.3-8.4,20.3-7,22.6,2-.9,7.3-14.3,7.2-20.8Z"/>
        <path d="M360.6,40c-2.7,0-5.1-1.8-5.1-5.3s1.9-9.2,4.5-13c.5-.7,1.1-1.5,1.7-1.5s.4,0,.6.2c.8-1.4,2.1-2.3,4-2.3s4.7,1.7,4.7,4.5-1.9,8.2-4.3,12.3c3.2-1.6,6.3-7.4,9-14.3.5,0,.9,0,.9.7,0,2.5-4.2,14.8-9.8,14.8s-.5,0-.7,0c-.2.3-.4.5-.5.8-1.6,2.2-3.5,3.1-4.9,3.1ZM363.2,34.4c-1.4-1.6-1.9-4.3-2-6.9-1.1,2.9-1.9,5.9-1.9,8s.4,2.5,1.3,2.8c.7-.6,1.6-2.1,2.6-3.9ZM363.9,33c1.6-3.5,3.1-7.9,3.1-11.1s-.3-2-1.6-2.5c-1.5.9-2.9,4.8-2.9,8.5s.4,3.8,1.3,5.1Z"/>
        <path d="M371.9,36.6c0-2.1,6-11.8,6-13.1s-.4-.8-.9-1.2c-1.5-1-1.9-1.9-1.9-3.7,0-4.5,1.7-6.3,3.3-6.3s1.6.4,2.1,1.2c-.9,1.3-2,3-3.4,5.7-.2.4-.3.7-.3,1.1s.1.5.4.6c3.1,1,4.1,1,4.1,3s-1.6,4.9-3.2,8.1c-1.2,2.6-2.3,5.1-2.4,6.3,3.6-1.7,8-9.6,10.7-16.1.3,0,.3,0,.3.3,0,2.1-6.7,17.5-11.8,17.5s-3-1.6-3-3.4Z"/>
        <path d="M397,36.6c0-1.5,1.4-5,3.2-8.6,1.8-3.7,3.7-7.1,3.6-8.3-1.5-.3-9.3,13.2-11.6,19.9-.3,0-.6,0-1,0-1.1,0-2.4-.3-2.4-1.4,0-1.5,1.6-6.2,3.1-9.9,1.7-4.1,3.6-7.9,3.5-9.2-1.5-.3-9.6,14.5-11.7,20.4-.4,0-.8,0-1.1,0-1.1,0-1.9-.3-1.9-1.5s1.2-4.7,2.6-8.4c1.4-3.8,3.3-7.6,4-10.2-.8.3-1.4.3-1.9.3-.9,0-1.2-.4-1.2-.8s0-.3.1-.5c1.3,0,2.5-.2,3.6-.2s2.4.7,2.4,2.2-1.3,4.4-3.1,8.5c3.5-6.2,6-11.5,8.4-11.5s3.2.7,3.2,2.5-1.8,5.7-3.2,9.3c3-6,5.8-11.3,8.4-11.3s3.5.7,3.5,2.7-1.4,4.7-3.3,8.6c-1.6,3.3-3.5,6.9-3.6,8.7,1.8-.8,3.3-3,4.5-5.1.3,0,.6,0,.6.5,0,1.8-3.3,6.6-5.8,6.6s-3-1.5-3-3.4Z"/>
      </g>
    </g>
  </g>
</svg>